<?xml version="1.0" encoding="UTF-8" standalone="no"?>
<svg viewBox="0 0 55 100">
  <defs />
  <g>
    <g
       transform="matrix(1.794544,0,0,1.794544,-96.937787,-290.40949)">
      <path
         d="m 78.000165,205.50795 c 3.175946,1.4892 6.227817,2.13817 6.227817,2.13817 0,0 -3.439587,0.9126 -4.727308,1.87377 -1.287762,0.96116 -1.792736,1.06122 -1.792736,1.06122 z"
         style="fill:#007000;fill-opacity:1;stroke:none;stroke-width:0.138577;stroke-linecap:butt;stroke-linejoin:miter;stroke-miterlimit:4;stroke-dasharray:none;stroke-opacity:1" />
      <path
         d="m 75.026161,195.01356 c -0.83117,1.06172 -6.109223,3.3425 -6.109223,3.3425 0,0 4.073779,-0.6436 5.760301,0.94939 1.686521,1.59301 0.348922,-4.29189 0.348922,-4.29189 z"
         style="fill:#0d7b0d;fill-opacity:1;stroke:none;stroke-width:0.138359px;stroke-linecap:butt;stroke-linejoin:miter;stroke-opacity:1" />
      <path
         d="m 73.652858,185.82382 c 2.096605,1.09524 4.168411,1.37965 6.245718,1.8444 l -4.299263,3.35487 z"
         style="fill:#0d770d;fill-opacity:1;stroke:none;stroke-width:0.138577;stroke-linecap:butt;stroke-linejoin:miter;stroke-miterlimit:4;stroke-dasharray:none;stroke-opacity:1" />
      <path
         d="m 57.282099,169.80571 c -1.834499,9.04102 -1.484308,6.36952 1.398414,11.21442 1.860524,3.12691 8.188444,4.76097 11.92868,4.21435 1.418135,-0.20724 4.308382,-2.27869 5.414481,-9.4828 0.275379,-1.7936 0.45559,-7.82003 -0.321104,-9.16415 -3.472774,-6.00959 -5.845124,-3.69626 -10.316372,-2.80612 -4.40062,0.87608 -7.066139,0.90885 -8.104099,6.0243 z"
         style="fill:#b53030;fill-opacity:1;stroke:none;stroke-width:0.115432;stroke-linecap:butt;stroke-linejoin:miter;stroke-miterlimit:4;stroke-dasharray:none;stroke-opacity:1" />
      <path
         d="m 70.122468,183.6519 c 7.77563,7.58264 3.838207,31.79325 3.838207,31.79325 l 2.35247,1.68945 c 0,0 3.228455,-5.75483 2.130574,-17.80985 -1.09792,-12.05499 -6.737634,-16.343 -6.737634,-16.343 z"
         style="fill:#008000;fill-opacity:1;stroke:none;stroke-width:0.138577;stroke-linecap:butt;stroke-linejoin:miter;stroke-miterlimit:4;stroke-dasharray:none;stroke-opacity:1" />
      <path
         d="m 55.689312,171.90519 c 2.405078,-3.93923 3.577056,-3.8964 5.615363,-4.47845 2.760454,-0.78824 4.76576,3.03326 4.76576,3.03326 0,0 -0.498513,-1.19493 -1.994822,2.31749 -1.496293,3.51242 -1.506379,7.31778 0.581814,9.91595 2.088177,2.59815 4.277549,2.54317 4.277549,2.54317 0,0 -2.294354,-3.49167 -4.058577,-2.12007 -1.764214,1.37158 -6.74807,-2.17195 -8.334487,-5.47752 -1.586403,-3.30558 -0.8526,-5.73383 -0.8526,-5.73383 z"
         style="fill:#c83737;fill-opacity:1;stroke:none;stroke-width:0.114578px;stroke-linecap:butt;stroke-linejoin:miter;stroke-opacity:1" />
      <path
         d="m 63.654972,164.73111 c 3.42421,-1.91232 4.874564,-1.90187 6.283692,-0.62282 1.409168,1.27902 3.462092,1.96606 2.568235,3.47293 -0.893877,1.50685 -2.401246,4.82479 -3.313492,2.25828 -0.912194,-2.56651 -1.215704,-2.67128 -2.966216,-2.69477 -1.750506,-0.0235 -3.023538,0.4086 -3.792665,0.46105 -0.769127,0.0525 1.220446,-2.87467 1.220446,-2.87467 z"
         style="fill:#c83737;fill-opacity:1;stroke:none;stroke-width:0.0903819px;stroke-linecap:butt;stroke-linejoin:miter;stroke-opacity:1" />
      <path
         style="fill:#008000;stroke:none;stroke-width:0.264583px;stroke-linecap:butt;stroke-linejoin:miter;stroke-opacity:1"
         d="m 70.122467,183.6519 c 0,0 0.08539,1.61009 -0.610346,2.23278 -0.695735,0.62269 -3.760444,0.11444 -3.914689,0.81716 -0.154244,0.70272 4.750099,0.94893 5.651296,0.20679 0.9012,-0.74214 -1.126261,-3.25673 -1.126261,-3.25673"
         />
      <path
         d="m 71.364465,168.57816 c -4.240463,2.39701 -4.75463,2.63554 -5.458168,4.40252 -0.703558,1.76698 -1.816512,6.67338 -0.510359,9.43171 1.30616,2.75834 4.125147,2.05581 6.237823,-0.27731 2.11269,-2.33311 2.582443,-10.28364 2.07667,-12.67758 -0.505772,-2.39394 -2.345966,-0.87934 -2.345966,-0.87934 z"
         style="fill:#c83737;fill-opacity:1;stroke:none;stroke-width:0.0935888px;stroke-linecap:butt;stroke-linejoin:miter;stroke-opacity:1" />
      <path
         style="fill:none;stroke:#000000;stroke-width:0.522933;stroke-linecap:butt;stroke-linejoin:miter;stroke-miterlimit:4;stroke-dasharray:none;stroke-opacity:1"
         d="m 71.706085,182.98175 c 11.30626,18.74895 3.906763,32.68641 3.906763,32.68641"
          />
      <path
         d="m 71.706085,182.98175 c 0,0 4.174064,-3.04424 4.537384,-7.7616 0.47351,-6.14807 2.150278,-10.19773 -3.388206,-7.08837 -5.538463,3.10937 -9.980084,3.55303 -10.260251,7.26181 -0.280167,3.70877 1.597967,6.96808 1.597967,6.96808 2.931468,3.79872 7.513106,0.62008 7.513106,0.62008 z"
         style="fill:none;stroke:#000000;stroke-width:0.522933;stroke-linecap:butt;stroke-linejoin:miter;stroke-miterlimit:4;stroke-dasharray:none;stroke-opacity:1" />
      <path
         d="m 65.833006,171.12821 c -1.604669,-5.28245 -6.26185,-3.48827 -9.216179,-0.31497 -2.954326,3.1733 -1.209916,4.69888 1.707312,8.57077 1.336548,1.77394 5.760225,6.5425 8.503271,5.50917 l 3.295058,-1.24128"
         style="fill:none;stroke:#000000;stroke-width:0.522933;stroke-linecap:butt;stroke-linejoin:miter;stroke-miterlimit:4;stroke-dasharray:none;stroke-opacity:1" />
      <path
         d="m 73.635575,186.36133 c 0,0 3.21147,1.13604 4.536091,1.22009 1.324582,0.084 1.72691,0.0868 1.72691,0.0868 0,0 -1.823256,1.46671 -2.377409,2.1324 -0.554173,0.66567 -1.494986,1.74706 -1.494986,1.74706"
         style="fill:none;stroke:#000000;stroke-width:0.522933;stroke-linecap:butt;stroke-linejoin:miter;stroke-miterlimit:4;stroke-dasharray:none;stroke-opacity:1" />
      <path
         d="m 75.026161,195.01356 c -3.733688,2.60224 -6.267786,2.33628 -6.267786,2.33628 0,0 5.950461,1.31047 6.753782,2.89068 0.803281,1.58019 0.803281,1.58019 0.803281,1.58019"
         style="fill:none;stroke:#000000;stroke-width:0.522933;stroke-linecap:butt;stroke-linejoin:miter;stroke-miterlimit:4;stroke-dasharray:none;stroke-opacity:1" />
      <path
         d="m 78.000165,205.50795 c 3.334589,2.48077 6.136395,2.62869 6.136395,2.62869 l -6.765543,1.87251"
         style="fill:none;stroke:#000000;stroke-width:0.522933;stroke-linecap:butt;stroke-linejoin:miter;stroke-miterlimit:4;stroke-dasharray:none;stroke-opacity:1" />
      <path
         style="fill:#008000;stroke:none;stroke-width:0.264583px;stroke-linecap:butt;stroke-linejoin:miter;stroke-opacity:1"
         d="m 71.706086,182.98175 c 0,0 1.978477,1.27331 3.944691,-0.29791 l 1.966214,-1.57122 0.891511,1.58618 c 0,0 -0.679843,1.65106 -3.455988,1.6508 -2.776149,-2.7e-4 -3.346428,-1.36785 -3.346428,-1.36785 z"
         />
      <path
         style="fill:none;stroke:#000000;stroke-width:0.523;stroke-linecap:butt;stroke-linejoin:round;stroke-miterlimit:4;stroke-dasharray:none;stroke-opacity:1;paint-order:normal"
         d="m 71.706083,182.98175 c 0,0 1.273737,1.52486 4.162803,0.96575 4.477836,-0.86657 1.748107,-2.83488 1.748107,-2.83488 0,0 1.226892,1.08713 -3.005859,1.69588 -4.232754,0.60875 -2.905048,0.17325 -2.905048,0.17325 z"
         />
      <path
         d="m 70.929902,185.63746 c 0,0 0.611346,1.56913 -2.308711,1.93324 -2.37763,0.29647 -3.28014,-0.40541 -3.28014,-0.40541 0,0 -0.07523,-0.35162 3.413314,-1.11572 1.382704,-0.30286 1.368103,-2.39767 1.368103,-2.39767 z"
         style="fill:none;stroke:#000000;stroke-width:0.522999;stroke-linecap:butt;stroke-linejoin:round;stroke-miterlimit:4;stroke-dasharray:none;stroke-opacity:1" />
      <path
         d="m 70.122468,183.6519 c 11.3063,18.74896 3.838207,31.79325 3.838207,31.79325"
         style="fill:none;stroke:#000000;stroke-width:0.522933;stroke-linecap:butt;stroke-linejoin:miter;stroke-miterlimit:4;stroke-dasharray:none;stroke-opacity:1" />
      <path
         style="fill:none;stroke:#000000;stroke-width:0.523;stroke-linecap:butt;stroke-linejoin:miter;stroke-miterlimit:4;stroke-dasharray:none;stroke-opacity:1"
         d="m 67.118803,167.06267 c -1.213207,-3.1894 -6.057521,-2.74217 -7.464477,-1.44271 -1.406954,1.29945 -1.321825,3.78656 -1.321825,3.78656"
         />
      <path
         style="fill:none;stroke:#000000;stroke-width:0.523;stroke-linecap:butt;stroke-linejoin:miter;stroke-miterlimit:4;stroke-dasharray:none;stroke-opacity:1"
         d="m 65.801706,171.58919 c 0.38499,-7.25133 6.689081,-8.33361 8.09731,-7.03223 1.408229,1.30138 1.541261,2.75889 1.541261,2.75889"
         />
      <path
         style="fill:none;stroke:#000000;stroke-width:0.523;stroke-linecap:butt;stroke-linejoin:miter;stroke-miterlimit:4;stroke-dasharray:none;stroke-opacity:1"
         d="m 63.654972,164.73111 c -2.346318,-0.53958 3.886511,-1.44258 4.788264,-1.10913 0.901756,0.33346 1.401532,0.8516 1.401532,0.8516"
         />
    </g>
  </g>
</svg>
