<?xml version="1.0" encoding="UTF-8" standalone="no"?>
<svg viewBox="0 0 210 210">
  <g>
    <g
       style="font-style:normal;font-weight:normal;font-size:10.5833px;line-height:1.25;font-family:sans-serif;display:inline;fill:#000000;fill-opacity:1;stroke:none;stroke-width:0.264583">
      <path
         style="font-style:normal;font-variant:normal;font-weight:normal;font-stretch:normal;font-family:BloomingGrove;fill:#000000;stroke-width:0.264583"
         d="m 59.656223,45.871625 c 0.222249,0.349248 0.592665,0.592664 1.02658,0.613831 h 0.402165 c 0.698498,-0.01058 1.661578,-0.645581 1.661578,-1.735661 v -2.497659 c 0,-0.05292 -0.0635,-0.105833 -0.116416,-0.105833 h -0.211666 c -0.05292,0 -0.116416,0.05292 -0.116416,0.105833 v 2.465909 c 0,0.01058 0.01058,0.01058 0.01058,0.02117 0,0.719665 -0.592665,1.31233 -1.312329,1.31233 h -0.264583 c -0.476248,-0.02117 -0.86783,-0.423332 -0.86783,-0.910164 v -0.751414 c 0,-0.05292 -0.05292,-0.105833 -0.105833,-0.105833 h -0.222249 c -0.05292,0 -0.105833,0.05292 -0.105833,0.105833 v 0.751414 c 0,0.486832 -0.391583,0.888997 -0.867831,0.910164 h -0.264582 c -0.709082,0 -1.28058,-0.571499 -1.301746,-1.269996 v -2.487076 c 0,-0.05292 -0.0635,-0.116416 -0.116417,-0.116416 h -0.211666 c -0.05292,0 -0.105833,0.0635 -0.105833,0.116416 v 2.444742 c 0,0.931331 0.730248,1.693328 1.650995,1.746245 h 0.402165 c 0.116417,0 0.656165,-0.0635 1.037164,-0.613831 z" />
      <path
         style="font-style:normal;font-variant:normal;font-weight:normal;font-stretch:normal;font-family:BloomingGrove;fill:#000000;stroke-width:0.264583"
         d="m 63.963623,38.145816 c -0.05292,0 -0.105833,0.0635 -0.105833,0.116416 v 5.958398 c 0,0.03175 -0.01058,0.07408 -0.01058,0.116416 0,0.04233 0.01058,0.07408 0.01058,0.105833 v 1.926161 c 0,0.05292 0.05292,0.116416 0.105833,0.116416 h 0.222249 c 0.05292,0 0.105833,-0.0635 0.105833,-0.116416 v -2.14841 c 0.0635,-0.899581 0.804331,-1.608662 1.714495,-1.608662 0.941913,0 1.714494,0.772581 1.725078,1.714495 v 2.042577 c 0,0.05292 0.05292,0.116416 0.105833,0.116416 h 0.222249 c 0.05292,0 0.105833,-0.0635 0.105833,-0.116416 v -2.042577 c -0.01058,-1.18533 -0.973664,-2.14841 -2.158993,-2.14841 -0.698498,0 -1.322913,0.338666 -1.714495,0.857247 v -4.773068 c 0,-0.05292 -0.05292,-0.116416 -0.105833,-0.116416 z" />
      <path
         style="font-style:normal;font-variant:normal;font-weight:normal;font-stretch:normal;font-family:BloomingGrove;fill:#000000;stroke-width:0.264583"
         d="m 71.29784,42.146303 c -1.195913,0 -2.158993,0.96308 -2.158993,2.158993 0,1.195913 0.96308,2.14841 2.158993,2.14841 h 0.275166 c 0.761998,-0.05292 1.301746,-0.497415 1.481662,-0.698498 0.105833,-0.126999 0.169333,-0.222249 0.169333,-0.296332 0,-0.03175 -0.01058,-0.0635 -0.04233,-0.08467 l -0.1905,-0.09525 c -0.02117,0 -0.03175,0 -0.04233,0 -0.09525,0 -0.169333,0.105833 -0.243416,0.201082 -0.507998,0.507999 -0.984247,0.529165 -1.15358,0.539749 H 71.29784 c -0.952497,0 -1.725078,-0.761998 -1.725078,-1.714495 0,-0.952497 0.772581,-1.725078 1.725078,-1.725078 0.857248,0 1.566329,0.634998 1.693328,1.460496 H 70.43001 c -0.05292,0 -0.116417,0.05292 -0.116417,0.105833 v 0.222249 c 0,0.05292 0.0635,0.105833 0.116417,0.105833 H 73.351 c 0.04233,0 0.09525,-0.04233 0.09525,-0.08467 v -0.09525 c 0,-1.18533 -0.96308,-2.14841 -2.14841,-2.14841 z" />
      <path
         style="font-style:normal;font-variant:normal;font-weight:normal;font-stretch:normal;font-family:BloomingGrove;fill:#000000;stroke-width:0.264583"
         d="m 76.578902,42.156886 c -0.698498,0 -1.322912,0.328083 -1.714494,0.846664 v -0.751414 c 0,-0.05292 -0.05292,-0.116416 -0.105833,-0.116416 h -0.22225 c -0.05292,0 -0.105833,0.0635 -0.105833,0.116416 v 1.947327 c 0,0.03175 -0.01058,0.0635 -0.01058,0.105833 0,0.04233 0.01058,0.08467 0.01058,0.116416 v 1.915578 c 0,0.05292 0.05292,0.116416 0.105833,0.116416 h 0.22225 c 0.05292,0 0.105833,-0.0635 0.105833,-0.116416 v -2.14841 c 0.0635,-0.899581 0.80433,-1.598078 1.714494,-1.598078 0.613831,0 1.132413,0.328082 1.418162,0.751414 0.02117,0.04233 0.07408,0.0635 0.116417,0.0635 0.126999,0 0.275165,-0.105833 0.275165,-0.22225 0,-0.126999 -0.645581,-1.02658 -1.809744,-1.02658 z" />
      <path
         style="font-style:normal;font-variant:normal;font-weight:normal;font-stretch:normal;font-family:BloomingGrove;fill:#000000;stroke-width:0.264583"
         d="m 81.457798,42.146303 c -1.195913,0 -2.158993,0.96308 -2.158993,2.158993 0,1.195913 0.96308,2.14841 2.158993,2.14841 h 0.275166 c 0.761997,-0.05292 1.301746,-0.497415 1.481662,-0.698498 0.105833,-0.126999 0.169333,-0.222249 0.169333,-0.296332 0,-0.03175 -0.01058,-0.0635 -0.04233,-0.08467 l -0.190499,-0.09525 c -0.02117,0 -0.03175,0 -0.04233,0 -0.09525,0 -0.169333,0.105833 -0.243416,0.201082 -0.507998,0.507999 -0.984247,0.529165 -1.15358,0.539749 h -0.253999 c -0.952497,0 -1.725078,-0.761998 -1.725078,-1.714495 0,-0.952497 0.772581,-1.725078 1.725078,-1.725078 0.857247,0 1.566328,0.634998 1.693328,1.460496 h -2.561158 c -0.05292,0 -0.116417,0.05292 -0.116417,0.105833 v 0.222249 c 0,0.05292 0.0635,0.105833 0.116417,0.105833 h 2.92099 c 0.04233,0 0.09525,-0.04233 0.09525,-0.08467 v -0.09525 c 0,-1.18533 -0.96308,-2.14841 -2.14841,-2.14841 z" />
      <path
         style="font-style:normal;font-variant:normal;font-weight:normal;font-stretch:normal;font-family:BloomingGrove;fill:#000000;stroke-width:0.264583"
         d="m 92.273911,38.082316 c -1.164163,0 -2.127244,0.920747 -2.158994,2.08491 v 1.98966 h -0.984246 c -0.05292,0 -0.105833,0.05292 -0.105833,0.105833 v 0.22225 c 0,0.05292 0.05292,0.105833 0.105833,0.105833 h 0.984246 v 3.757071 c 0,0.05292 0.05292,0.116416 0.105833,0.116416 H 90.443 c 0.05292,0 0.105833,-0.0635 0.105833,-0.116416 v -3.757071 h 2.666991 c 0.05292,0 0.116417,-0.05292 0.116417,-0.105833 v -0.22225 c 0,-0.05292 -0.0635,-0.105833 -0.116417,-0.105833 h -2.666991 v -1.92616 c 0,-0.952497 0.772581,-1.714495 1.725078,-1.714495 0.941913,0 1.703911,0.751415 1.714494,1.693328 v 0.0635 c 0,0.05292 0.05292,0.116416 0.105833,0.116416 h 0.222249 c 0.05292,0 0.105833,-0.0635 0.105833,-0.116416 v -0.0635 c -0.01058,-1.185329 -0.96308,-2.127243 -2.148409,-2.127243 z" />
      <path
         style="font-style:normal;font-variant:normal;font-weight:normal;font-stretch:normal;font-family:BloomingGrove;fill:#000000;stroke-width:0.264583"
         d="m 96.04155,42.146303 c -1.195913,0 -2.158993,0.96308 -2.158993,2.158993 0,1.195913 0.96308,2.14841 2.158993,2.14841 h 0.275166 c 0.761997,-0.05292 1.301745,-0.497415 1.481662,-0.698498 0.105833,-0.126999 0.169332,-0.222249 0.169332,-0.296332 0,-0.03175 -0.01058,-0.0635 -0.04233,-0.08467 l -0.190499,-0.09525 c -0.02117,0 -0.03175,0 -0.04233,0 -0.09525,0 -0.169333,0.105833 -0.243416,0.201082 -0.507999,0.507999 -0.984247,0.529165 -1.15358,0.539749 H 96.04155 c -0.952497,0 -1.725078,-0.761998 -1.725078,-1.714495 0,-0.952497 0.772581,-1.725078 1.725078,-1.725078 0.857247,0 1.566328,0.634998 1.693328,1.460496 h -2.561159 c -0.05292,0 -0.116416,0.05292 -0.116416,0.105833 v 0.222249 c 0,0.05292 0.0635,0.105833 0.116416,0.105833 h 2.920991 c 0.04233,0 0.09525,-0.04233 0.09525,-0.08467 v -0.09525 c 0,-1.18533 -0.963081,-2.14841 -2.14841,-2.14841 z" />
      <path
         style="font-style:normal;font-variant:normal;font-weight:normal;font-stretch:normal;font-family:BloomingGrove;fill:#000000;stroke-width:0.264583"
         d="m 101.19561,42.146303 c -1.195913,0 -2.158993,0.96308 -2.158993,2.158993 0,1.195913 0.96308,2.14841 2.158993,2.14841 h 0.27517 c 0.76199,-0.05292 1.30174,-0.497415 1.48166,-0.698498 0.10583,-0.126999 0.16933,-0.222249 0.16933,-0.296332 0,-0.03175 -0.0106,-0.0635 -0.0423,-0.08467 l -0.1905,-0.09525 c -0.0212,0 -0.0318,0 -0.0423,0 -0.0952,0 -0.16933,0.105833 -0.24341,0.201082 -0.508,0.507999 -0.98425,0.529165 -1.15358,0.539749 h -0.254 c -0.9525,0 -1.725078,-0.761998 -1.725078,-1.714495 0,-0.952497 0.772578,-1.725078 1.725078,-1.725078 0.85725,0 1.56633,0.634998 1.69333,1.460496 h -2.56116 c -0.0529,0 -0.11642,0.05292 -0.11642,0.105833 v 0.222249 c 0,0.05292 0.0635,0.105833 0.11642,0.105833 h 2.92099 c 0.0423,0 0.0953,-0.04233 0.0953,-0.08467 v -0.09525 c 0,-1.18533 -0.96308,-2.14841 -2.14841,-2.14841 z" />
      <path
         style="font-style:normal;font-variant:normal;font-weight:normal;font-stretch:normal;font-family:BloomingGrove;fill:#000000;stroke-width:0.264583"
         d="m 106.5825,46.474873 c 0.0529,0 0.11642,-0.05292 0.11642,-0.105833 v -0.22225 c 0,-0.05292 -0.0741,-0.105833 -0.11642,-0.105833 h -0.0212 c -0.47625,0 -0.85725,-0.402165 -0.87842,-0.86783 v -5.746732 c 0,-0.740831 -0.5715,-1.344079 -1.31233,-1.344079 h -0.0106 c -0.0529,0 -0.10583,0.05292 -0.10583,0.105833 v 0.222249 c 0,0.05292 0.0635,0.105833 0.10583,0.105833 h 0.0212 c 0.47625,0 0.84666,0.402166 0.86783,0.867831 v 5.736148 c 0,0.740831 0.58208,1.354663 1.32291,1.354663 z" />
      <path
         style="font-style:normal;font-variant:normal;font-weight:normal;font-stretch:normal;font-family:BloomingGrove;fill:#000000;stroke-width:0.264583"
         d="m 108.64625,40.685808 c -0.0741,0 -0.14817,0.08467 -0.15875,0.158749 v 0.306916 c 0.0106,0.0635 0.0847,0.158749 0.15875,0.158749 h 0.30691 c 0.0847,0 0.15875,-0.09525 0.15875,-0.158749 v -0.306916 c 0,-0.07408 -0.0741,-0.158749 -0.15875,-0.158749 z m -0.56092,1.460495 c -0.0529,0.01058 -0.11641,0.0635 -0.11641,0.116416 v 0.211666 c 0,0.0635 0.0635,0.116417 0.11641,0.116417 h 0.4445 c 0.0741,0 0.14817,0.07408 0.14817,0.137583 v 3.153823 c 0,0.08467 -0.0847,0.148166 -0.16933,0.148166 h -0.73025 c -0.0423,0 -0.11642,0.05292 -0.10584,0.105833 v 0.222249 c -0.0106,0.05292 0.0635,0.105833 0.10584,0.105833 h 0.99483 c 0,0 0.0106,0 0.0106,0 h 0.22225 0.99483 c 0.0529,0 0.11642,-0.05292 0.11642,-0.105833 v -0.222249 c 0,-0.05292 -0.0635,-0.105833 -0.11642,-0.105833 h -0.71966 c -0.0847,0 -0.16934,-0.07408 -0.16934,-0.148166 v -3.619489 c 0,-0.04233 -0.0529,-0.116416 -0.10583,-0.116416 z" />
      <path
         style="font-style:normal;font-variant:normal;font-weight:normal;font-stretch:normal;font-family:BloomingGrove;fill:#000000;stroke-width:0.264583"
         d="m 111.26032,42.16747 c -0.0529,0 -0.10583,0.05292 -0.10583,0.105833 v 4.095737 c 0,0.05292 0.0529,0.105833 0.10583,0.105833 h 0.22225 c 0.0529,0 0.10583,-0.05292 0.10583,-0.105833 v -2.158994 c 0.0635,-0.89958 0.81492,-1.598078 1.72508,-1.598078 0.94191,0 1.70391,0.761998 1.7145,1.703911 v 2.053161 c 0,0.05292 0.0529,0.105833 0.10583,0.105833 h 0.22225 c 0.0529,0 0.10583,-0.05292 0.10583,-0.105833 v -2.053161 c -0.0106,-1.185329 -0.96308,-2.137826 -2.14841,-2.137826 -0.6985,0 -1.33349,0.328082 -1.72508,0.846664 v -0.751414 c 0,-0.05292 -0.0529,-0.105833 -0.10583,-0.105833 z" />
      <path
         style="font-style:normal;font-variant:normal;font-weight:normal;font-stretch:normal;font-family:BloomingGrove;fill:#000000;stroke-width:0.264583"
         d="m 118.59454,42.146303 c -1.19591,0 -2.15899,0.96308 -2.15899,2.158993 0,1.195913 0.96308,2.158993 2.15899,2.158993 0.6985,0 1.32292,-0.338665 1.7145,-0.857247 v 2.762241 c 0,0.952497 -0.762,1.714495 -1.7145,1.714495 -0.94191,0 -1.71449,-0.751415 -1.72507,-1.693328 v -0.0635 c 0,-0.05292 -0.0529,-0.116416 -0.10584,-0.116416 h -0.22225 c -0.0529,0 -0.10583,0.0635 -0.10583,0.116416 v 0.0635 c 0.0106,1.185329 0.97366,2.127243 2.15899,2.127243 1.16417,0 2.11666,-0.920747 2.14841,-2.08491 l 0.0106,-0.0635 v -6.09598 c 0,-0.05292 -0.0635,-0.116417 -0.11642,-0.116417 h -0.21167 c -0.0529,0 -0.11641,0.0635 -0.11641,0.116417 v 0.730247 c -0.39158,-0.518581 -1.016,-0.857247 -1.7145,-0.857247 z m 0,0.433915 c 0.91017,0 1.651,0.709081 1.7145,1.608662 v 0.232832 c -0.0635,0.899581 -0.80433,1.608662 -1.7145,1.608662 -0.95249,0 -1.72507,-0.772581 -1.72507,-1.725078 0,-0.952497 0.77258,-1.725078 1.72507,-1.725078 z" />
      <path
         style="font-style:normal;font-variant:normal;font-weight:normal;font-stretch:normal;font-family:BloomingGrove;fill:#000000;stroke-width:0.264583"
         d="m 124.78576,43.310466 c 0,0.105833 0.10583,0.158749 0.21166,0.158749 0.10584,0 0.21167,-0.05292 0.21167,-0.158749 0,-0.634998 -0.762,-1.15358 -1.71449,-1.15358 -0.9525,0 -1.7145,0.518582 -1.7145,1.15358 0,0.730248 0.81491,0.99483 1.22766,1.111246 l 0.21167,0.05292 c 0.97366,0.222249 1.55574,0.338666 1.55574,0.846664 0,0.423332 -0.61383,0.719664 -1.28057,0.719664 -0.70909,0 -1.28058,-0.317499 -1.28058,-0.719664 0,-0.09525 -0.11642,-0.148166 -0.23284,-0.148166 -0.10583,0 -0.20108,0.05292 -0.20108,0.148166 0,0.634998 0.762,1.15358 1.7145,1.15358 0.95249,0 1.71449,-0.518582 1.71449,-1.15358 0,-0.423332 -0.34925,-0.867831 -1.04775,-1.068913 l -0.17991,-0.04233 c -1.13242,-0.275165 -1.76741,-0.359832 -1.76741,-0.89958 0,-0.402165 0.57149,-0.719664 1.28058,-0.719664 0.67733,0 1.29116,0.306915 1.29116,0.719664 z" />
      <path
         style="font-style:normal;font-variant:normal;font-weight:normal;font-stretch:normal;font-family:BloomingGrove;fill:#000000;stroke-width:0.264583"
         d="m 132.77613,42.146303 c -1.19591,0 -2.15899,0.96308 -2.15899,2.158993 0,1.195913 0.96308,2.158993 2.15899,2.158993 0.6985,0 1.32291,-0.338665 1.7145,-0.857247 v 2.762241 c 0,0.952497 -0.762,1.714495 -1.7145,1.714495 -0.94191,0 -1.71449,-0.751415 -1.72508,-1.693328 v -0.0635 c 0,-0.05292 -0.0529,-0.116416 -0.10583,-0.116416 h -0.22225 c -0.0529,0 -0.10583,0.0635 -0.10583,0.116416 v 0.0635 c 0.0106,1.185329 0.97366,2.127243 2.15899,2.127243 1.16416,0 2.11666,-0.920747 2.14841,-2.08491 l 0.0106,-0.0635 v -6.09598 c 0,-0.05292 -0.0635,-0.116417 -0.11641,-0.116417 h -0.21167 c -0.0529,0 -0.11641,0.0635 -0.11641,0.116417 v 0.730247 c -0.39159,-0.518581 -1.016,-0.857247 -1.7145,-0.857247 z m 0,0.433915 c 0.91016,0 1.651,0.709081 1.7145,1.608662 v 0.232832 c -0.0635,0.899581 -0.80434,1.608662 -1.7145,1.608662 -0.9525,0 -1.72508,-0.772581 -1.72508,-1.725078 0,-0.952497 0.77258,-1.725078 1.72508,-1.725078 z" />
      <path
         style="font-style:normal;font-variant:normal;font-weight:normal;font-stretch:normal;font-family:BloomingGrove;fill:#000000;stroke-width:0.264583"
         d="m 138.19476,42.156886 c -0.6985,0 -1.32292,0.328083 -1.7145,0.846664 v -0.751414 c 0,-0.05292 -0.0529,-0.116416 -0.10583,-0.116416 h -0.22225 c -0.0529,0 -0.10583,0.0635 -0.10583,0.116416 v 1.947327 c 0,0.03175 -0.0106,0.0635 -0.0106,0.105833 0,0.04233 0.0106,0.08467 0.0106,0.116416 v 1.915578 c 0,0.05292 0.0529,0.116416 0.10583,0.116416 h 0.22225 c 0.0529,0 0.10583,-0.0635 0.10583,-0.116416 v -2.14841 c 0.0635,-0.899581 0.80433,-1.598078 1.7145,-1.598078 0.61383,0 1.13241,0.328082 1.41816,0.751414 0.0212,0.04233 0.0741,0.0635 0.11641,0.0635 0.127,0 0.27517,-0.105833 0.27517,-0.22225 0,-0.126999 -0.64558,-1.02658 -1.80974,-1.02658 z" />
      <path
         style="font-style:normal;font-variant:normal;font-weight:normal;font-stretch:normal;font-family:BloomingGrove;fill:#000000;stroke-width:0.264583"
         d="m 143.07365,42.156886 c -1.19591,0 -2.15899,0.952497 -2.15899,2.14841 0,1.195913 0.96308,2.158993 2.15899,2.158993 1.19592,0 2.14841,-0.96308 2.14841,-2.158993 0,-1.195913 -0.95249,-2.14841 -2.14841,-2.14841 z m 0,0.433916 c 0.9525,0 1.7145,0.761997 1.7145,1.714494 0,0.952497 -0.762,1.725078 -1.7145,1.725078 -0.95249,0 -1.72507,-0.772581 -1.72507,-1.725078 0,-0.952497 0.77258,-1.714494 1.72507,-1.714494 z" />
      <path
         style="font-style:normal;font-variant:normal;font-weight:normal;font-stretch:normal;font-family:BloomingGrove;fill:#000000;stroke-width:0.264583"
         d="m 149.28604,45.871625 c 0.22225,0.349248 0.59267,0.592664 1.02658,0.613831 h 0.40217 c 0.6985,-0.01058 1.66158,-0.645581 1.66158,-1.735661 v -2.497659 c 0,-0.05292 -0.0635,-0.105833 -0.11642,-0.105833 h -0.21166 c -0.0529,0 -0.11642,0.05292 -0.11642,0.105833 v 2.465909 c 0,0.01058 0.0106,0.01058 0.0106,0.02117 0,0.719665 -0.59266,1.31233 -1.31233,1.31233 h -0.26458 c -0.47625,-0.02117 -0.86783,-0.423332 -0.86783,-0.910164 v -0.751414 c 0,-0.05292 -0.0529,-0.105833 -0.10583,-0.105833 h -0.22225 c -0.0529,0 -0.10583,0.05292 -0.10583,0.105833 v 0.751414 c 0,0.486832 -0.39159,0.888997 -0.86784,0.910164 h -0.26458 c -0.70908,0 -1.28058,-0.571499 -1.30174,-1.269996 v -2.487076 c 0,-0.05292 -0.0635,-0.116416 -0.11642,-0.116416 h -0.21167 c -0.0529,0 -0.10583,0.0635 -0.10583,0.116416 v 2.444742 c 0,0.931331 0.73025,1.693328 1.651,1.746245 h 0.40216 c 0.11642,0 0.65617,-0.0635 1.03716,-0.613831 z" />
      <path
         style="font-style:normal;font-variant:normal;font-weight:normal;font-stretch:normal;font-family:BloomingGrove;fill:#000000;stroke-width:0.264583"
         d="m 153.98503,45.628209 c -0.3175,0 -0.5715,0.243416 -0.5715,0.560914 0,0.317499 0.254,0.571499 0.5715,0.571499 0.3175,0 0.56092,-0.254 0.56092,-0.571499 0,-0.317498 -0.24342,-0.560914 -0.56092,-0.560914 z m -0.13758,0.560914 c 0,-0.07408 0.0635,-0.126999 0.13758,-0.126999 0.0741,0 0.127,0.05292 0.127,0.126999 0,0.07408 -0.0529,0.137583 -0.127,0.137583 -0.0741,0 -0.13758,-0.0635 -0.13758,-0.137583 z" />
    </g>
    <g
       style="font-style:normal;font-weight:normal;font-size:10.5833px;line-height:1.25;font-family:sans-serif;display:inline;fill:#000000;fill-opacity:1;stroke:none;stroke-width:0.264583">
      <path
         style="font-style:normal;font-variant:normal;font-weight:normal;font-stretch:normal;font-family:BloomingGrove;stroke-width:0.264583"
         d="m 87.238812,158.01031 c -1.195913,0 -2.158994,0.96308 -2.158994,2.159 0,1.19591 0.963081,2.14841 2.158994,2.14841 h 0.275165 c 0.761998,-0.0529 1.301746,-0.49742 1.481662,-0.6985 0.105833,-0.127 0.169333,-0.22225 0.169333,-0.29633 0,-0.0317 -0.01058,-0.0635 -0.04233,-0.0847 l -0.190499,-0.0953 c -0.02117,0 -0.03175,0 -0.04233,0 -0.09525,0 -0.169332,0.10583 -0.243416,0.20108 -0.507998,0.508 -0.984246,0.52917 -1.153579,0.53975 h -0.253999 c -0.952497,0 -1.725078,-0.762 -1.725078,-1.71449 0,-0.9525 0.772581,-1.72508 1.725078,-1.72508 0.857247,0 1.566328,0.635 1.693328,1.46049 h -2.561159 c -0.05292,0 -0.116416,0.0529 -0.116416,0.10584 v 0.22225 c 0,0.0529 0.0635,0.10583 0.116416,0.10583 h 2.920991 c 0.04233,0 0.09525,-0.0423 0.09525,-0.0847 v -0.0953 c 0,-1.18533 -0.96308,-2.14841 -2.148409,-2.14841 z" />
      <path
         style="font-style:normal;font-variant:normal;font-weight:normal;font-stretch:normal;font-family:BloomingGrove;stroke-width:0.264583"
         d="m 90.561963,158.04206 c -0.05292,0 -0.116417,0.0635 -0.116417,0.11642 v 4.08515 c 0,0.0529 0.0635,0.11642 0.116417,0.11642 h 0.222249 c 0.05292,0 0.09525,-0.0635 0.09525,-0.11642 v -2.76224 c 0,-0.56091 0.507998,-0.98425 1.068913,-0.98425 0.709081,0 1.354662,0.3175 1.354662,1.25942 v 2.48707 c 0,0.0529 0.0635,0.11642 0.116416,0.11642 h 0.211666 c 0.05292,0 0.105833,-0.0635 0.105833,-0.11642 v -2.76224 c 0,-0.56091 0.497416,-0.98425 1.05833,-0.98425 0.709082,0 1.365246,0.3175 1.365246,1.25942 v 2.48707 c 0,0.0529 0.05292,0.11642 0.105833,0.11642 h 0.222249 c 0.05292,0 0.105833,-0.0529 0.105833,-0.11642 v -2.48707 c -0.01058,-1.16417 -0.698497,-1.69333 -1.735661,-1.69333 h -0.0635 c -0.93133,0.0212 -1.164163,0.66675 -1.301745,0.66675 -0.01058,0 -0.03175,-0.0106 -0.04233,-0.0318 -0.158749,-0.23284 -0.603248,-0.635 -1.502828,-0.635 -0.529165,0 -0.783164,0.16933 -1.068913,0.43391 l 0.01058,-0.33866 c 0,-0.0529 -0.05292,-0.11642 -0.105833,-0.11642 z" />
      <path
         style="font-style:normal;font-variant:normal;font-weight:normal;font-stretch:normal;font-family:BloomingGrove;stroke-width:0.264583"
         d="m 98.605258,156.54982 c -0.07408,0 -0.148166,0.0847 -0.158749,0.15875 v 0.30691 c 0.01058,0.0635 0.08467,0.15875 0.158749,0.15875 h 0.306916 c 0.08467,0 0.15875,-0.0952 0.15875,-0.15875 v -0.30691 c 0,-0.0741 -0.07408,-0.15875 -0.15875,-0.15875 z m -0.560915,1.46049 c -0.05292,0.0106 -0.116416,0.0635 -0.116416,0.11642 v 0.21167 c 0,0.0635 0.0635,0.11641 0.116416,0.11641 h 0.444499 c 0.07408,0 0.148166,0.0741 0.148166,0.13758 v 3.15383 c 0,0.0847 -0.08467,0.14816 -0.169333,0.14816 h -0.730247 c -0.04233,0 -0.116417,0.0529 -0.105833,0.10584 v 0.22225 c -0.01058,0.0529 0.0635,0.10583 0.105833,0.10583 h 0.99483 c 0,0 0.01058,0 0.01058,0 h 0.22225 0.99483 c 0.05292,0 0.116419,-0.0529 0.116419,-0.10583 v -0.22225 c 0,-0.0529 -0.0635,-0.10584 -0.116419,-0.10584 h -0.719665 c -0.08467,0 -0.169332,-0.0741 -0.169332,-0.14816 v -3.61949 c 0,-0.0423 -0.05292,-0.11642 -0.105833,-0.11642 z" />
      <path
         style="font-style:normal;font-variant:normal;font-weight:normal;font-stretch:normal;font-family:BloomingGrove;stroke-width:0.264583"
         d="m 103.37833,162.33888 c 0.0529,0 0.11641,-0.0529 0.11641,-0.10583 v -0.22225 c 0,-0.0529 -0.0741,-0.10583 -0.11641,-0.10583 h -0.0212 c -0.47625,0 -0.85725,-0.40217 -0.87841,-0.86783 v -5.74674 c 0,-0.74083 -0.5715,-1.34407 -1.31233,-1.34407 h -0.0106 c -0.0529,0 -0.10583,0.0529 -0.10583,0.10583 v 0.22225 c 0,0.0529 0.0635,0.10583 0.10583,0.10583 h 0.0212 c 0.47625,0 0.84666,0.40217 0.86783,0.86783 v 5.73615 c 0,0.74083 0.58208,1.35466 1.32291,1.35466 z" />
      <path
         style="font-style:normal;font-variant:normal;font-weight:normal;font-stretch:normal;font-family:BloomingGrove;stroke-width:0.264583"
         d="m 104.63774,157.98915 c -0.0529,0 -0.10584,0.0635 -0.10584,0.11641 v 2.06375 c 0,1.19591 0.96308,2.15899 2.159,2.15899 0.6985,0 1.32291,-0.33867 1.71449,-0.85725 v 2.76224 c 0,0.9525 -0.762,1.7145 -1.71449,1.7145 -0.94192,0 -1.7145,-0.75142 -1.72508,-1.69333 v -0.0635 c 0,-0.0529 -0.0529,-0.11642 -0.10583,-0.11642 h -0.22225 c -0.0529,0 -0.10584,0.0635 -0.10584,0.11642 v 0.0635 c 0.0106,1.18533 0.97367,2.12724 2.159,2.12724 1.16416,0 2.11666,-0.92074 2.14841,-2.08491 l 0.0106,-0.0635 v -6.09598 c 0,-0.0529 -0.0635,-0.11641 -0.11642,-0.11641 h -0.21166 c -0.0529,0 -0.11642,0.0635 -0.11642,0.11641 v 2.14841 c -0.0635,0.89958 -0.80433,1.60866 -1.71449,1.60866 -0.9525,0 -1.7145,-0.77258 -1.7145,-1.72507 0,-0.0317 -0.0106,-0.0529 -0.0106,-0.0847 v -1.97908 c 0,-0.0529 -0.0529,-0.11641 -0.10583,-0.11641 z" />
      <path
         style="font-style:normal;font-variant:normal;font-weight:normal;font-stretch:normal;font-family:BloomingGrove;stroke-width:0.264583"
         d="m 117.64459,153.94633 c -1.16416,0 -2.12724,0.92074 -2.15899,2.08491 v 1.98966 h -0.98425 c -0.0529,0 -0.10583,0.0529 -0.10583,0.10583 v 0.22225 c 0,0.0529 0.0529,0.10583 0.10583,0.10583 h 0.98425 v 3.75707 c 0,0.0529 0.0529,0.11642 0.10583,0.11642 h 0.22225 c 0.0529,0 0.10583,-0.0635 0.10583,-0.11642 v -3.75707 h 2.66699 c 0.0529,0 0.11642,-0.0529 0.11642,-0.10583 v -0.22225 c 0,-0.0529 -0.0635,-0.10583 -0.11642,-0.10583 h -2.66699 v -1.92616 c 0,-0.9525 0.77258,-1.7145 1.72508,-1.7145 0.94191,0 1.70391,0.75142 1.71449,1.69333 v 0.0635 c 0,0.0529 0.0529,0.11642 0.10584,0.11642 h 0.22225 c 0.0529,0 0.10583,-0.0635 0.10583,-0.11642 v -0.0635 c -0.0106,-1.18533 -0.96308,-2.12724 -2.14841,-2.12724 z" />
      <path
         style="font-style:normal;font-variant:normal;font-weight:normal;font-stretch:normal;font-family:BloomingGrove;stroke-width:0.264583"
         d="m 121.41223,158.0209 c -1.19592,0 -2.159,0.95249 -2.159,2.14841 0,1.19591 0.96308,2.15899 2.159,2.15899 1.19591,0 2.14841,-0.96308 2.14841,-2.15899 0,-1.19592 -0.9525,-2.14841 -2.14841,-2.14841 z m 0,0.43391 c 0.95249,0 1.71449,0.762 1.71449,1.7145 0,0.95249 -0.762,1.72507 -1.71449,1.72507 -0.9525,0 -1.72508,-0.77258 -1.72508,-1.72507 0,-0.9525 0.77258,-1.7145 1.72508,-1.7145 z" />
      <path
         style="font-style:normal;font-variant:normal;font-weight:normal;font-stretch:normal;font-family:BloomingGrove;stroke-width:0.264583"
         d="m 128.11143,158.0209 c -0.0106,0 -0.0212,0.0106 -0.0212,0.0106 h -0.0212 c -0.0106,0 -0.0106,0.0212 -0.0106,0.0212 l -1.75683,1.75682 c -0.0317,0.0212 -0.0847,0.0317 -0.11642,0 l -1.74624,-1.75682 c -0.0106,-0.0106 -0.0318,-0.0212 -0.0423,-0.0212 -0.0106,0 -0.0318,-0.0106 -0.0423,-0.0106 h -0.0318 c -0.0106,0 -0.0212,0.0106 -0.0318,0.0106 l -0.16933,0.16933 c 0,0 -0.0106,0.0106 -0.0106,0.0212 0,0.0106 -0.0106,0.0106 -0.0106,0.0212 v 0.0847 c 0,0.0106 0.0106,0.0212 0.0212,0.0317 l 1.75683,1.76741 c 0.0318,0.0317 0.0318,0.0741 0,0.10584 l -1.75683,1.76741 c -0.0106,0.0106 -0.0212,0.0212 -0.0212,0.0317 -0.0106,0.0212 0,0.0423 0,0.0635 v 0.0212 c 0,0.0106 0.0106,0.0212 0.0212,0.0318 l 0.15875,0.15875 c 0,0 0,0.0212 0.0106,0.0212 0.0106,0.0106 0.0212,0.0106 0.0318,0.0106 h 0.0318 c 0.0212,0 0.0423,-0.0106 0.0635,-0.0212 0.0106,0 0.0106,0 0.0212,-0.0106 l 1.74624,-1.76741 c 0.0318,-0.0212 0.0847,-0.0317 0.11642,0 l 1.76741,1.778 c 0.0106,0 0.0106,0.0106 0.0212,0.0106 0.0106,0 0.0317,0.0106 0.0423,0.0106 h 0.0318 c 0.0106,0 0.0212,-0.0106 0.0317,-0.0106 l 0.0106,-0.0106 0.15875,-0.16934 h 0.0106 c 0.0106,-0.0106 0.0212,-0.0318 0.0212,-0.0423 0,-0.0106 -0.0106,-0.0212 -0.0106,-0.0318 v -0.0423 c 0,-0.0106 -0.0212,-0.0317 -0.0212,-0.0317 l -1.75683,-1.76741 c -0.0318,-0.0317 -0.0318,-0.0741 0,-0.10584 l 1.75683,-1.76741 0.0106,-0.0212 c 0,-0.0106 0.0106,0 0.0106,-0.0106 0,-0.0106 0.0106,-0.0317 0.0106,-0.0423 0,-0.0212 -0.0106,-0.0423 -0.0106,-0.0529 0,-0.0106 0,-0.0106 -0.0212,-0.0318 l -0.15875,-0.15875 c 0,0 0,-0.0106 -0.0106,-0.0106 -0.0106,0 -0.0212,-0.0106 -0.0317,-0.0106 z" />
    </g>
  </g>
  <g>
    <g
       transform="matrix(0.75048203,0,0,0.75048203,54.67546,-42.660375)">
      <path
         d="m 78.000165,205.50795 c 3.175946,1.4892 6.227817,2.13817 6.227817,2.13817 0,0 -3.439587,0.9126 -4.727308,1.87377 -1.287762,0.96116 -1.792736,1.06122 -1.792736,1.06122 z"
         style="fill:#007000;fill-opacity:1;stroke:none;stroke-width:0.138577;stroke-linecap:butt;stroke-linejoin:miter;stroke-miterlimit:4;stroke-dasharray:none;stroke-opacity:1" />
      <path
         d="m 75.026161,195.01356 c -0.83117,1.06172 -6.109223,3.3425 -6.109223,3.3425 0,0 4.073779,-0.6436 5.760301,0.94939 1.686521,1.59301 0.348922,-4.29189 0.348922,-4.29189 z"
         style="fill:#0d7b0d;fill-opacity:1;stroke:none;stroke-width:0.138359px;stroke-linecap:butt;stroke-linejoin:miter;stroke-opacity:1" />
      <path
         d="m 73.652858,185.82382 c 2.096605,1.09524 4.168411,1.37965 6.245718,1.8444 l -4.299263,3.35487 z"
         style="fill:#0d770d;fill-opacity:1;stroke:none;stroke-width:0.138577;stroke-linecap:butt;stroke-linejoin:miter;stroke-miterlimit:4;stroke-dasharray:none;stroke-opacity:1" />
      <path
         d="m 57.282099,169.80571 c -1.834499,9.04102 -1.484308,6.36952 1.398414,11.21442 1.860524,3.12691 8.188444,4.76097 11.92868,4.21435 1.418135,-0.20724 4.308382,-2.27869 5.414481,-9.4828 0.275379,-1.7936 0.45559,-7.82003 -0.321104,-9.16415 -3.472774,-6.00959 -5.845124,-3.69626 -10.316372,-2.80612 -4.40062,0.87608 -7.066139,0.90885 -8.104099,6.0243 z"
         style="fill:#b53030;fill-opacity:1;stroke:none;stroke-width:0.115432;stroke-linecap:butt;stroke-linejoin:miter;stroke-miterlimit:4;stroke-dasharray:none;stroke-opacity:1" />
      <path
         d="m 70.122468,183.6519 c 7.77563,7.58264 3.838207,31.79325 3.838207,31.79325 l 2.35247,1.68945 c 0,0 3.228455,-5.75483 2.130574,-17.80985 -1.09792,-12.05499 -6.737634,-16.343 -6.737634,-16.343 z"
         style="fill:#008000;fill-opacity:1;stroke:none;stroke-width:0.138577;stroke-linecap:butt;stroke-linejoin:miter;stroke-miterlimit:4;stroke-dasharray:none;stroke-opacity:1" />
      <path
         d="m 55.689312,171.90519 c 2.405078,-3.93923 3.577056,-3.8964 5.615363,-4.47845 2.760454,-0.78824 4.76576,3.03326 4.76576,3.03326 0,0 -0.498513,-1.19493 -1.994822,2.31749 -1.496293,3.51242 -1.506379,7.31778 0.581814,9.91595 2.088177,2.59815 4.277549,2.54317 4.277549,2.54317 0,0 -2.294354,-3.49167 -4.058577,-2.12007 -1.764214,1.37158 -6.74807,-2.17195 -8.334487,-5.47752 -1.586403,-3.30558 -0.8526,-5.73383 -0.8526,-5.73383 z"
         style="fill:#c83737;fill-opacity:1;stroke:none;stroke-width:0.114578px;stroke-linecap:butt;stroke-linejoin:miter;stroke-opacity:1" />
      <path
         d="m 63.654972,164.73111 c 3.42421,-1.91232 4.874564,-1.90187 6.283692,-0.62282 1.409168,1.27902 3.462092,1.96606 2.568235,3.47293 -0.893877,1.50685 -2.401246,4.82479 -3.313492,2.25828 -0.912194,-2.56651 -1.215704,-2.67128 -2.966216,-2.69477 -1.750506,-0.0235 -3.023538,0.4086 -3.792665,0.46105 -0.769127,0.0525 1.220446,-2.87467 1.220446,-2.87467 z"
         style="fill:#c83737;fill-opacity:1;stroke:none;stroke-width:0.0903819px;stroke-linecap:butt;stroke-linejoin:miter;stroke-opacity:1" />
      <path
         style="fill:#008000;stroke:none;stroke-width:0.264583px;stroke-linecap:butt;stroke-linejoin:miter;stroke-opacity:1"
         d="m 70.122467,183.6519 c 0,0 0.08539,1.61009 -0.610346,2.23278 -0.695735,0.62269 -3.760444,0.11444 -3.914689,0.81716 -0.154244,0.70272 4.750099,0.94893 5.651296,0.20679 0.9012,-0.74214 -1.126261,-3.25673 -1.126261,-3.25673" />
      <path
         d="m 71.364465,168.57816 c -4.240463,2.39701 -4.75463,2.63554 -5.458168,4.40252 -0.703558,1.76698 -1.816512,6.67338 -0.510359,9.43171 1.30616,2.75834 4.125147,2.05581 6.237823,-0.27731 2.11269,-2.33311 2.582443,-10.28364 2.07667,-12.67758 -0.505772,-2.39394 -2.345966,-0.87934 -2.345966,-0.87934 z"
         style="fill:#c83737;fill-opacity:1;stroke:none;stroke-width:0.0935888px;stroke-linecap:butt;stroke-linejoin:miter;stroke-opacity:1" />
      <path
         style="fill:none;stroke:#000000;stroke-width:0.522933;stroke-linecap:butt;stroke-linejoin:miter;stroke-miterlimit:4;stroke-dasharray:none;stroke-opacity:1"
         d="m 71.706085,182.98175 c 11.30626,18.74895 3.906763,32.68641 3.906763,32.68641" />
      <path
         d="m 71.706085,182.98175 c 0,0 4.174064,-3.04424 4.537384,-7.7616 0.47351,-6.14807 2.150278,-10.19773 -3.388206,-7.08837 -5.538463,3.10937 -9.980084,3.55303 -10.260251,7.26181 -0.280167,3.70877 1.597967,6.96808 1.597967,6.96808 2.931468,3.79872 7.513106,0.62008 7.513106,0.62008 z"
         style="fill:none;stroke:#000000;stroke-width:0.522933;stroke-linecap:butt;stroke-linejoin:miter;stroke-miterlimit:4;stroke-dasharray:none;stroke-opacity:1" />
      <path
         d="m 65.833006,171.12821 c -1.604669,-5.28245 -6.26185,-3.48827 -9.216179,-0.31497 -2.954326,3.1733 -1.209916,4.69888 1.707312,8.57077 1.336548,1.77394 5.760225,6.5425 8.503271,5.50917 l 3.295058,-1.24128"
         style="fill:none;stroke:#000000;stroke-width:0.522933;stroke-linecap:butt;stroke-linejoin:miter;stroke-miterlimit:4;stroke-dasharray:none;stroke-opacity:1" />
      <path
         d="m 73.635575,186.36133 c 0,0 3.21147,1.13604 4.536091,1.22009 1.324582,0.084 1.72691,0.0868 1.72691,0.0868 0,0 -1.823256,1.46671 -2.377409,2.1324 -0.554173,0.66567 -1.494986,1.74706 -1.494986,1.74706"
         style="fill:none;stroke:#000000;stroke-width:0.522933;stroke-linecap:butt;stroke-linejoin:miter;stroke-miterlimit:4;stroke-dasharray:none;stroke-opacity:1" />
      <path
         d="m 75.026161,195.01356 c -3.733688,2.60224 -6.267786,2.33628 -6.267786,2.33628 0,0 5.950461,1.31047 6.753782,2.89068 0.803281,1.58019 0.803281,1.58019 0.803281,1.58019"
         style="fill:none;stroke:#000000;stroke-width:0.522933;stroke-linecap:butt;stroke-linejoin:miter;stroke-miterlimit:4;stroke-dasharray:none;stroke-opacity:1" />
      <path
         d="m 78.000165,205.50795 c 3.334589,2.48077 6.136395,2.62869 6.136395,2.62869 l -6.765543,1.87251"
         style="fill:none;stroke:#000000;stroke-width:0.522933;stroke-linecap:butt;stroke-linejoin:miter;stroke-miterlimit:4;stroke-dasharray:none;stroke-opacity:1" />
      <path
         style="fill:#008000;stroke:none;stroke-width:0.264583px;stroke-linecap:butt;stroke-linejoin:miter;stroke-opacity:1"
         d="m 71.706086,182.98175 c 0,0 1.978477,1.27331 3.944691,-0.29791 l 1.966214,-1.57122 0.891511,1.58618 c 0,0 -0.679843,1.65106 -3.455988,1.6508 -2.776149,-2.7e-4 -3.346428,-1.36785 -3.346428,-1.36785 z" />
      <path
         style="fill:none;stroke:#000000;stroke-width:0.523;stroke-linecap:butt;stroke-linejoin:round;stroke-miterlimit:4;stroke-dasharray:none;stroke-opacity:1;paint-order:normal"
         d="m 71.706083,182.98175 c 0,0 1.273737,1.52486 4.162803,0.96575 4.477836,-0.86657 1.748107,-2.83488 1.748107,-2.83488 0,0 1.226892,1.08713 -3.005859,1.69588 -4.232754,0.60875 -2.905048,0.17325 -2.905048,0.17325 z" />
      <path
         d="m 70.929902,185.63746 c 0,0 0.611346,1.56913 -2.308711,1.93324 -2.37763,0.29647 -3.28014,-0.40541 -3.28014,-0.40541 0,0 -0.07523,-0.35162 3.413314,-1.11572 1.382704,-0.30286 1.368103,-2.39767 1.368103,-2.39767 z"
         style="fill:none;stroke:#000000;stroke-width:0.522999;stroke-linecap:butt;stroke-linejoin:round;stroke-miterlimit:4;stroke-dasharray:none;stroke-opacity:1" />
      <path
         d="m 70.122468,183.6519 c 11.3063,18.74896 3.838207,31.79325 3.838207,31.79325"
         style="fill:none;stroke:#000000;stroke-width:0.522933;stroke-linecap:butt;stroke-linejoin:miter;stroke-miterlimit:4;stroke-dasharray:none;stroke-opacity:1" />
      <path
         style="fill:none;stroke:#000000;stroke-width:0.523;stroke-linecap:butt;stroke-linejoin:miter;stroke-miterlimit:4;stroke-dasharray:none;stroke-opacity:1"
         d="m 67.118803,167.06267 c -1.213207,-3.1894 -6.057521,-2.74217 -7.464477,-1.44271 -1.406954,1.29945 -1.321825,3.78656 -1.321825,3.78656" />
      <path
         style="fill:none;stroke:#000000;stroke-width:0.523;stroke-linecap:butt;stroke-linejoin:miter;stroke-miterlimit:4;stroke-dasharray:none;stroke-opacity:1"
         d="m 65.801706,171.58919 c 0.38499,-7.25133 6.689081,-8.33361 8.09731,-7.03223 1.408229,1.30138 1.541261,2.75889 1.541261,2.75889" />
      <path
         style="fill:none;stroke:#000000;stroke-width:0.523;stroke-linecap:butt;stroke-linejoin:miter;stroke-miterlimit:4;stroke-dasharray:none;stroke-opacity:1"
         d="m 63.654972,164.73111 c -2.346318,-0.53958 3.886511,-1.44258 4.788264,-1.10913 0.901756,0.33346 1.401532,0.8516 1.401532,0.8516" />
    </g>
  </g>
</svg>
